# xmcd CD database file
#
# Track frame offsets:
#	150
#	27205
#	50348
#	87164
#	116034
#	142087
#	179112
#	210475
#	242044
#	263841
#
# Disc length: 3780 seconds
#
# Revision: 0
# Processed by: cddbd v1.5.2PL0 Copyright (c) Steve Scherf et al.
# Submitted via: CDex 1.70beta2
#
DISCID=8f0ec20a
DTITLE=Chief Master Sun - Bootleg
DYEAR=2008
DGENRE=Jazz
TTITLE0=I can See
TTITLE1=Use
TTITLE2=Stand, Breath and find
TTITLE3=Wing
TTITLE4=City Blues
TTITLE5=Time
TTITLE6=Joke
TTITLE7=Tea
TTITLE8=Wood
TTITLE9=Ronjobi Jam
EXTD=YEAR: 2008
EXTT0=
EXTT1=
EXTT2=
EXTT3=
EXTT4=
EXTT5=
EXTT6=
EXTT7=
EXTT8=
EXTT9=
PLAYORDER=
